<svg width="38" height="38" viewBox="0 0 38 38" fill="none" xmlns="http://www.w3.org/2000/svg">
<path d="M10.4926 0C4.6986 0 0 4.6986 0 10.4926V27.2808C0 33.0748 4.6986 37.7734 10.4926 37.7734H27.2808C33.0748 37.7734 37.7734 33.0748 37.7734 27.2808V10.4926C37.7734 4.6986 33.0748 0 27.2808 0H10.4926ZM31.4779 4.19705C32.6362 4.19705 33.5764 5.13719 33.5764 6.29557C33.5764 7.45396 32.6362 8.3941 31.4779 8.3941C30.3195 8.3941 29.3793 7.45396 29.3793 6.29557C29.3793 5.13719 30.3195 4.19705 31.4779 4.19705ZM18.8867 8.3941C24.6807 8.3941 29.3793 13.0927 29.3793 18.8867C29.3793 24.6807 24.6807 29.3793 18.8867 29.3793C13.0927 29.3793 8.3941 24.6807 8.3941 18.8867C8.3941 13.0927 13.0927 8.3941 18.8867 8.3941ZM18.8867 12.5911C17.217 12.5911 15.6157 13.2544 14.4351 14.4351C13.2544 15.6157 12.5911 17.217 12.5911 18.8867C12.5911 20.5564 13.2544 22.1577 14.4351 23.3384C15.6157 24.519 17.217 25.1823 18.8867 25.1823C20.5564 25.1823 22.1577 24.519 23.3384 23.3384C24.519 22.1577 25.1823 20.5564 25.1823 18.8867C25.1823 17.217 24.519 15.6157 23.3384 14.4351C22.1577 13.2544 20.5564 12.5911 18.8867 12.5911Z" fill="white"/>
</svg>
