<svg width="18" height="18" viewBox="0 0 18 18" fill="none" xmlns="http://www.w3.org/2000/svg">
<path fill-rule="evenodd" clip-rule="evenodd" d="M9 18C13.9706 18 18 13.9706 18 9C18 4.02944 13.9706 0 9 0C4.02944 0 0 4.02944 0 9C0 13.9706 4.02944 18 9 18ZM9.25 4.5C9.25 4.08579 8.91421 3.75 8.5 3.75C8.08579 3.75 7.75 4.08579 7.75 4.5V9.5V9.8107L7.96967 10.0303L10.9697 13.0303C11.2626 13.3232 11.7374 13.3232 12.0303 13.0303C12.3232 12.7374 12.3232 12.2626 12.0303 11.9697L9.25 9.1893V4.5Z" fill="white"/>
</svg>
