<svg width="48" height="38" viewBox="0 0 48 38" fill="none" xmlns="http://www.w3.org/2000/svg">
<path d="M46.23 5.1608C45.687 3.13047 44.0863 1.52982 42.056 0.986832C38.3731 4.9251e-07 23.6084 0 23.6084 0C23.6084 0 8.84371 4.9251e-07 5.1608 0.986832C3.13047 1.52982 1.52982 3.13047 0.986831 5.1608C-7.03585e-08 8.84371 0 18.8867 0 18.8867C0 18.8867 -7.03585e-08 28.9297 0.986831 32.6126C1.52982 34.643 3.13047 36.2436 5.1608 36.7866C8.84371 37.7734 23.6084 37.7734 23.6084 37.7734C23.6084 37.7734 38.3731 37.7734 42.056 36.7866C44.0887 36.2436 45.687 34.643 46.23 32.6126C47.2168 28.9297 47.2168 18.8867 47.2168 18.8867C47.2168 18.8867 47.2168 8.84371 46.23 5.1608ZM18.8867 27.0647V10.7088L33.0518 18.8867L18.8867 27.0647Z" fill="white"/>
</svg>
